# xmcd
#
# Track frame offsets:
#	150
#	17790
#	37038
#	54555
#	69313
#	86338
#	102770
#	125378
#	143000
#	159248
#	173025
#	191215
#	210840
#	227700
#
# Disc length: 3283 seconds
#
# Revision: 2
# Processed by: cddbd v1.5.2PL0 Copyright (c) Steve Scherf et al.
# Submitted via: audiograbber 1.83.01
#
DISCID=af0cd10e
DTITLE=Various Artist - Collezione Italiano Volume 1
DYEAR=1900
DGENRE=
TTITLE0=Tozzi and Ralf - Gente di Mare
TTITLE1=Al Bano and Romina Power - Liberta
TTITLE2=Dario Baldan Bembo - Amico E
TTITLE3=Riccardo Fogli - Per Lucia
TTITLE4=Francesco Napoli - Sorridi
TTITLE5=Franco Simone - Tu e Cosi' Sia
TTITLE6=Umberto Tozzi - Gloria
TTITLE7=Toto Cutugno - L'Italiano
TTITLE8=Riccardo Cocciante - Il mio Rifugio
TTITLE9=Anna Oxa and Fausto Leali - Aurei Voluto (Anna Oxa and Fausto Leali)
TTITLE10=Bino - Mama Leone
TTITLE11=Pino D'Angio - Ma Quale Idea
TTITLE12=Christian - Un altra vita un altro amore
TTITLE13=Lorreta Goggi - Maledetta Primavera (Loretta Goggi)
EXTD=
EXTT0=
EXTT1=
EXTT2=
EXTT3=
EXTT4=
EXTT5=
EXTT6=
EXTT7=
EXTT8=
EXTT9=
EXTT10=
EXTT11=
EXTT12=
EXTT13=
PLAYORDER=
